<svg width="822" height="116" viewBox="0 0 822 116" fill="none" xmlns="http://www.w3.org/2000/svg">
<path d="M29.6443 0.00317383L0.649414 28.998L29.6443 57.9929L58.6391 28.998L29.6443 0.00317383Z" fill="#FAA831"/>
<path d="M29.6453 57.9985L0.650391 86.9934L29.6453 115.988L58.6401 86.9934L29.6453 57.9985Z" fill="#FAA831"/>
<path fill-rule="evenodd" clip-rule="evenodd" d="M29.6548 116L58.639 86.9949L87.6442 116H29.6548Z" fill="#269183"/>
<path fill-rule="evenodd" clip-rule="evenodd" d="M29.6548 0H87.6442L58.639 29.0053L29.6548 0Z" fill="#269183"/>
<path fill-rule="evenodd" clip-rule="evenodd" d="M0.649414 29.0051L29.6547 57.9893L0.649414 86.9946V29.0051Z" fill="#F16136"/>
<path fill-rule="evenodd" clip-rule="evenodd" d="M58.6387 86.9948L87.6439 57.9895L116.649 86.9948L87.6439 116L58.6387 86.9948Z" fill="#80CAA9"/>
<path fill-rule="evenodd" clip-rule="evenodd" d="M58.6387 29.0053L87.6439 0L116.649 29.0053L87.6439 57.9895L58.6387 29.0053Z" fill="#80CAA9"/>
<path d="M173.521 78.7678C176.516 78.7678 179.364 78.156 182.022 76.9325C184.701 75.7301 187.254 73.8949 189.7 71.4479L196.788 79.1264C193.645 82.2695 190.017 84.7376 185.925 86.5096C181.832 88.2815 177.55 89.1675 173.057 89.1675C168.732 89.1675 164.682 88.3448 160.906 86.7416C157.13 85.1384 153.861 82.9445 151.097 80.1811C148.355 77.4388 146.161 74.148 144.558 70.3299C142.933 66.5117 142.132 62.3983 142.132 57.9895C142.132 53.665 142.933 49.5938 144.558 45.7756C146.161 41.9575 148.355 38.6456 151.097 35.8611C153.861 33.0766 157.13 30.8616 160.906 29.2584C164.682 27.6341 168.732 26.8325 173.057 26.8325C177.55 26.8325 181.917 27.7185 186.157 29.4905C190.418 31.2624 194.109 33.7094 197.252 36.8736L189.827 44.8896C187.549 42.4426 184.975 40.5863 182.149 39.2784C179.322 37.9916 176.369 37.3377 173.289 37.3377C167.867 37.3377 163.269 39.3417 159.493 43.3497C155.696 47.3788 153.818 52.2517 153.818 57.9895C153.818 63.896 155.717 68.8322 159.535 72.8191C163.353 76.7849 168.015 78.7678 173.521 78.7678ZM218.157 2.8689V88.0917H206.344V5.46355L218.157 2.8689ZM243.661 28.0138V63.6639C243.661 68.3892 245.011 72.1229 247.732 74.8864C250.432 77.6287 254.039 78.9998 258.533 78.9998C261.676 78.9998 264.502 78.3248 267.034 76.9325C269.544 75.5614 271.632 73.6207 273.278 71.0893V28.0138H285.091V88.0917H273.278V82.0797C270.915 84.4423 268.236 86.2353 265.199 87.4588C262.161 88.6612 258.849 89.273 255.221 89.273C248.365 89.273 242.775 87.0791 238.408 82.6703C234.042 78.2615 231.848 72.587 231.848 65.6679V28.0138H243.661ZM293.36 80.3077L299.731 72.5237C302.874 74.9496 306.08 76.8271 309.35 78.1138C312.62 79.4217 315.931 80.0757 319.328 80.0757C323.568 80.0757 327.027 79.253 329.706 77.5865C332.385 75.9411 333.735 73.7683 333.735 71.0893C333.735 68.9798 332.934 67.2922 331.373 66.0266C329.791 64.7609 327.344 63.896 324.053 63.4319L313.189 61.892C307.283 61.0271 302.81 59.1919 299.794 56.4074C296.756 53.6018 295.237 49.8891 295.237 45.2482C295.237 39.8058 297.41 35.4181 301.735 32.0851C306.059 28.7311 311.734 27.0646 318.737 27.0646C323.146 27.0646 327.323 27.6974 331.31 28.9631C335.275 30.2077 339.157 32.1484 342.933 34.7431L336.921 42.527C333.609 40.3332 330.402 38.73 327.302 37.7596C324.179 36.7681 321.057 36.283 317.914 36.283C314.286 36.283 311.375 37.0213 309.181 38.519C306.966 40.0167 305.869 41.9785 305.869 44.4255C305.869 46.6194 306.629 48.2859 308.169 49.4461C309.708 50.5852 312.24 51.429 315.784 51.9775L326.648 53.5174C332.554 54.3823 337.047 56.2175 340.169 59.0653C343.27 61.892 344.831 65.6258 344.831 70.2666C344.831 72.9456 344.177 75.4559 342.869 77.7763C341.583 80.0968 339.811 82.0797 337.554 83.725C335.318 85.3915 332.66 86.6994 329.601 87.6909C326.521 88.6612 323.209 89.1675 319.686 89.1675C314.476 89.1675 309.624 88.4081 305.089 86.9104C300.574 85.4126 296.651 83.2188 293.36 80.3077ZM360.526 73.2199V37.9284H347.763V28.0138H360.526V12.6569L372.212 9.83016V28.0138H389.911V37.9284H372.212V70.5197C372.212 73.5785 372.908 75.7512 374.279 76.9958C375.651 78.2615 377.908 78.8944 381.072 78.8944C382.717 78.8944 384.194 78.7889 385.502 78.599C386.789 78.4092 388.181 78.0295 389.679 77.481V87.3955C388.118 87.944 386.282 88.3659 384.194 88.6823C382.106 88.9987 380.207 89.1675 378.477 89.1675C372.634 89.1675 368.204 87.7963 365.124 85.0962C362.066 82.375 360.526 78.4092 360.526 73.2199ZM449.419 81.257C445.959 83.936 442.331 85.9189 438.555 87.2057C434.779 88.5136 430.645 89.1675 426.152 89.1675C421.743 89.1675 417.629 88.3448 413.769 86.7416C409.908 85.1384 406.554 82.9445 403.728 80.1811C400.901 77.4388 398.665 74.148 397.062 70.3299C395.438 66.5117 394.636 62.3983 394.636 57.9895C394.636 53.665 395.438 49.6148 396.999 45.8389C398.581 42.0629 400.69 38.7932 403.369 36.0298C406.048 33.2875 409.233 31.0937 412.946 29.4905C416.638 27.8662 420.582 27.0646 424.738 27.0646C428.831 27.0646 432.67 27.8662 436.256 29.4905C439.842 31.0937 442.901 33.3086 445.453 36.0931C448.027 38.8987 450.052 42.2106 451.55 46.0709C453.026 49.9313 453.786 54.0658 453.786 58.4746V61.892H406.322C407.124 66.8493 409.402 70.9627 413.178 74.2324C416.954 77.5021 421.447 79.1264 426.637 79.1264C429.548 79.1264 432.332 78.6623 435.011 77.713C437.69 76.7638 439.969 75.477 441.867 73.8105L449.419 81.257ZM424.506 36.9791C420.013 36.9791 416.11 38.4768 412.756 41.4723C409.423 44.4677 407.314 48.307 406.449 53.0322H442.099C441.234 48.4757 439.167 44.6576 435.897 41.5777C432.628 38.519 428.83 36.9791 424.506 36.9791ZM465.008 88.0917V28.0138H476.8V35.6923C478.614 32.7812 480.935 30.5452 483.761 29.0053C486.609 27.4865 489.794 26.706 493.338 26.706C494.583 26.706 495.701 26.7903 496.629 26.938C497.578 27.1068 498.485 27.3388 499.35 27.6552V38.287C498.253 37.8862 497.114 37.5698 495.933 37.3377C494.752 37.1057 493.57 36.9791 492.389 36.9791C488.929 36.9791 485.828 37.9073 483.128 39.7636C480.407 41.5988 478.298 44.3412 476.8 47.9695V88.0917H465.008Z" fill="white"/>
<path d="M545.31 28.06V41.62C545.31 43.3 545.6 44.54 546.18 45.34C546.76 46.14 547.79 46.54 549.27 46.54C550.75 46.54 551.78 46.14 552.36 45.34C552.94 44.54 553.23 43.3 553.23 41.62V28.06H556.41V41.11C556.41 42.53 556.28 43.76 556.02 44.8C555.78 45.84 555.38 46.7 554.82 47.38C554.26 48.06 553.52 48.56 552.6 48.88C551.7 49.2 550.59 49.36 549.27 49.36C547.95 49.36 546.83 49.2 545.91 48.88C545.01 48.56 544.28 48.06 543.72 47.38C543.16 46.7 542.75 45.84 542.49 44.8C542.25 43.76 542.13 42.53 542.13 41.11V28.06H545.31Z" fill="white"/>
<path d="M565.984 36.43L564.394 32.53H564.004L564.244 36.49V49H561.184V28.06H564.844L571.084 40.63L572.704 44.53H573.094L572.854 40.57V28.06H575.914V49H572.224L565.984 36.43Z" fill="white"/>
<path d="M584 49H580.82V28.06H589.1C590.9 28.06 592.25 28.6 593.15 29.68C594.07 30.74 594.53 32.27 594.53 34.27C594.53 35.89 594.23 37.2 593.63 38.2C593.03 39.2 592.13 39.87 590.93 40.21L594.92 49H591.38L587.75 40.45H584V49ZM588.83 37.78C589.59 37.78 590.16 37.59 590.54 37.21C590.94 36.81 591.14 36.17 591.14 35.29V33.34C591.14 32.46 590.94 31.83 590.54 31.45C590.16 31.05 589.59 30.85 588.83 30.85H584V37.78H588.83Z" fill="white"/>
<path d="M610.604 49L608.984 43.21H601.934L600.314 49H597.194L603.464 28.06H607.514L613.814 49H610.604ZM606.284 34L605.624 30.94H605.234L604.574 34L602.714 40.6H608.234L606.284 34Z" fill="white"/>
<path d="M619.871 49L613.721 28.06H617.051L620.771 41.23L621.641 46.12H622.031L622.901 41.23L626.591 28.06H629.861L623.741 49H619.871Z" fill="white"/>
<path d="M632.96 49V28.06H645.11V30.85H636.14V36.97H644.24V39.73H636.14V46.21H645.11V49H632.96Z" fill="white"/>
<path d="M649.344 49V28.06H652.524V46.21H660.144V49H649.344Z" fill="white"/>
<path d="M682.097 54.13H679.337C678.217 54.13 677.407 53.86 676.907 53.32C676.427 52.78 676.187 52.03 676.187 51.07V49.27C674.067 49.01 672.407 48.02 671.207 46.3C670.007 44.58 669.407 41.99 669.407 38.53C669.407 36.63 669.587 35 669.947 33.64C670.327 32.26 670.867 31.13 671.567 30.25C672.287 29.37 673.147 28.73 674.147 28.33C675.147 27.91 676.277 27.7 677.537 27.7C678.797 27.7 679.927 27.91 680.927 28.33C681.927 28.73 682.777 29.37 683.477 30.25C684.197 31.13 684.737 32.26 685.097 33.64C685.477 35 685.667 36.63 685.667 38.53C685.667 41.91 685.087 44.46 683.927 46.18C682.787 47.88 681.207 48.89 679.187 49.21V51.49H682.097V54.13ZM677.537 46.54C679.037 46.54 680.197 46.06 681.017 45.1C681.837 44.12 682.247 42.77 682.247 41.05V36.01C682.247 34.29 681.837 32.95 681.017 31.99C680.197 31.01 679.037 30.52 677.537 30.52C676.037 30.52 674.877 31.01 674.057 31.99C673.237 32.95 672.827 34.29 672.827 36.01V41.05C672.827 42.77 673.237 44.12 674.057 45.1C674.877 46.06 676.037 46.54 677.537 46.54Z" fill="white"/>
<path d="M689.736 49V28.06H692.917V46.21H700.536V49H689.736Z" fill="white"/>
<path d="M703.172 49V46.45H705.722V30.61H703.172V28.06H711.452V30.61H708.902V46.45H711.452V49H703.172Z" fill="white"/>
<path d="M721.38 39.1L718.77 42.46V49H715.59V28.06H718.77V34.96L718.59 38.86H718.98L721.65 34.96L726.57 28.06H730.23L723.57 36.94L730.71 49H726.96L721.38 39.1Z" fill="white"/>
<path d="M746.148 49.36C744.588 49.36 743.228 49.07 742.068 48.49C740.928 47.89 739.948 47.03 739.128 45.91L741.318 43.9C741.938 44.76 742.648 45.42 743.448 45.88C744.248 46.34 745.158 46.57 746.178 46.57C748.658 46.57 749.898 45.43 749.898 43.15C749.898 42.23 749.678 41.53 749.238 41.05C748.798 40.55 748.038 40.17 746.958 39.91L745.248 39.55C743.368 39.13 741.978 38.46 741.078 37.54C740.198 36.6 739.758 35.29 739.758 33.61C739.758 31.67 740.338 30.2 741.498 29.2C742.678 28.2 744.318 27.7 746.418 27.7C747.918 27.7 749.178 27.96 750.198 28.48C751.238 28.98 752.138 29.77 752.898 30.85L750.708 32.77C750.168 32.01 749.558 31.44 748.878 31.06C748.218 30.68 747.378 30.49 746.358 30.49C745.218 30.49 744.358 30.73 743.778 31.21C743.218 31.67 742.938 32.44 742.938 33.52C742.938 34.4 743.158 35.07 743.598 35.53C744.058 35.97 744.798 36.31 745.818 36.55L747.528 36.94C748.528 37.16 749.378 37.44 750.078 37.78C750.778 38.1 751.348 38.5 751.788 38.98C752.248 39.46 752.578 40.03 752.778 40.69C752.978 41.33 753.078 42.08 753.078 42.94C753.078 45.04 752.468 46.64 751.248 47.74C750.048 48.82 748.348 49.36 746.148 49.36Z" fill="white"/>
<path d="M756.92 49V28.06H769.07V30.85H760.1V36.97H768.2V39.73H760.1V46.21H769.07V49H756.92Z" fill="white"/>
<path d="M778.104 36.43L776.514 32.53H776.124L776.364 36.49V49H773.304V28.06H776.964L783.204 40.63L784.824 44.53H785.214L784.974 40.57V28.06H788.034V49H784.344L778.104 36.43Z" fill="white"/>
<path d="M798.61 49.36C797.05 49.36 795.69 49.07 794.53 48.49C793.39 47.89 792.41 47.03 791.59 45.91L793.78 43.9C794.4 44.76 795.11 45.42 795.91 45.88C796.71 46.34 797.62 46.57 798.64 46.57C801.12 46.57 802.36 45.43 802.36 43.15C802.36 42.23 802.14 41.53 801.7 41.05C801.26 40.55 800.5 40.17 799.42 39.91L797.71 39.55C795.83 39.13 794.44 38.46 793.54 37.54C792.66 36.6 792.22 35.29 792.22 33.61C792.22 31.67 792.8 30.2 793.96 29.2C795.14 28.2 796.78 27.7 798.88 27.7C800.38 27.7 801.64 27.96 802.66 28.48C803.7 28.98 804.6 29.77 805.36 30.85L803.17 32.77C802.63 32.01 802.02 31.44 801.34 31.06C800.68 30.68 799.84 30.49 798.82 30.49C797.68 30.49 796.82 30.73 796.24 31.21C795.68 31.67 795.4 32.44 795.4 33.52C795.4 34.4 795.62 35.07 796.06 35.53C796.52 35.97 797.26 36.31 798.28 36.55L799.99 36.94C800.99 37.16 801.84 37.44 802.54 37.78C803.24 38.1 803.81 38.5 804.25 38.98C804.71 39.46 805.04 40.03 805.24 40.69C805.44 41.33 805.54 42.08 805.54 42.94C805.54 45.04 804.93 46.64 803.71 47.74C802.51 48.82 800.81 49.36 798.61 49.36Z" fill="white"/>
<path d="M809.383 49V28.06H821.533V30.85H812.563V36.97H820.663V39.73H812.563V46.21H821.533V49H809.383Z" fill="white"/>
<path d="M549.42 69.85V88H546.24V69.85H540.69V67.06H554.97V69.85H549.42Z" fill="white"/>
<path d="M569.774 78.7299H561.434V88H558.254V67.06H561.434V75.97H569.774V67.06H572.954V88H569.774V78.7299Z" fill="white"/>
<path d="M581.041 88H577.861V67.06H586.141C587.941 67.06 589.291 67.6 590.191 68.68C591.111 69.74 591.571 71.27 591.571 73.27C591.571 74.89 591.271 76.2 590.671 77.2C590.071 78.2 589.171 78.87 587.971 79.21L591.961 88H588.421L584.791 79.45H581.041V88ZM585.871 76.78C586.631 76.78 587.201 76.59 587.581 76.21C587.981 75.81 588.181 75.17 588.181 74.29V72.34C588.181 71.4599 587.981 70.83 587.581 70.45C587.201 70.05 586.631 69.85 585.871 69.85H581.041V76.78H585.871Z" fill="white"/>
<path d="M603.029 88.36C601.769 88.36 600.639 88.16 599.639 87.76C598.639 87.34 597.779 86.69 597.059 85.81C596.359 84.93 595.819 83.81 595.439 82.45C595.079 81.07 594.899 79.43 594.899 77.53C594.899 75.63 595.079 74 595.439 72.64C595.819 71.26 596.359 70.13 597.059 69.25C597.779 68.37 598.639 67.7299 599.639 67.3299C600.639 66.9099 601.769 66.7 603.029 66.7C604.289 66.7 605.419 66.9099 606.419 67.3299C607.419 67.7299 608.269 68.37 608.969 69.25C609.689 70.13 610.229 71.26 610.589 72.64C610.969 74 611.159 75.63 611.159 77.53C611.159 79.43 610.969 81.07 610.589 82.45C610.229 83.81 609.689 84.93 608.969 85.81C608.269 86.69 607.419 87.34 606.419 87.76C605.419 88.16 604.289 88.36 603.029 88.36ZM603.029 85.54C604.529 85.54 605.689 85.06 606.509 84.1C607.329 83.12 607.739 81.7699 607.739 80.0499V75.0099C607.739 73.2899 607.329 71.95 606.509 70.99C605.689 70.01 604.529 69.52 603.029 69.52C601.529 69.52 600.369 70.01 599.549 70.99C598.729 71.95 598.319 73.2899 598.319 75.0099V80.0499C598.319 81.7699 598.729 83.12 599.549 84.1C600.369 85.06 601.529 85.54 603.029 85.54Z" fill="white"/>
<path d="M618.229 67.06V80.6199C618.229 82.2999 618.519 83.54 619.099 84.34C619.679 85.14 620.709 85.54 622.189 85.54C623.669 85.54 624.699 85.14 625.279 84.34C625.859 83.54 626.149 82.2999 626.149 80.6199V67.06H629.329V80.11C629.329 81.53 629.199 82.76 628.939 83.8C628.699 84.84 628.299 85.7 627.739 86.38C627.179 87.06 626.439 87.56 625.519 87.88C624.619 88.2 623.509 88.36 622.189 88.36C620.869 88.36 619.749 88.2 618.829 87.88C617.929 87.56 617.199 87.06 616.639 86.38C616.079 85.7 615.669 84.84 615.409 83.8C615.169 82.76 615.049 81.53 615.049 80.11V67.06H618.229Z" fill="white"/>
<path d="M646.163 84.91H645.803C645.603 85.91 645.093 86.74 644.273 87.4C643.453 88.04 642.293 88.36 640.793 88.36C639.713 88.36 638.713 88.16 637.793 87.76C636.893 87.36 636.103 86.73 635.423 85.87C634.743 84.99 634.213 83.87 633.833 82.51C633.453 81.13 633.263 79.48 633.263 77.56C633.263 75.64 633.443 74 633.803 72.64C634.183 71.26 634.723 70.13 635.423 69.25C636.143 68.37 637.003 67.7299 638.003 67.3299C639.003 66.9099 640.133 66.7 641.393 66.7C643.253 66.7 644.763 67.0999 645.923 67.8999C647.083 68.6999 647.983 69.84 648.623 71.32L646.013 72.85C645.653 71.83 645.103 71.02 644.363 70.42C643.643 69.82 642.663 69.52 641.423 69.52C639.923 69.52 638.753 70 637.913 70.96C637.093 71.92 636.683 73.2599 636.683 74.9799V80.08C636.683 81.8 637.093 83.14 637.913 84.1C638.753 85.06 639.923 85.54 641.423 85.54C642.043 85.54 642.623 85.45 643.163 85.27C643.703 85.09 644.173 84.83 644.573 84.49C644.993 84.15 645.313 83.73 645.533 83.23C645.773 82.71 645.893 82.13 645.893 81.49V79.66H642.023V76.93H648.983V88H646.163V84.91Z" fill="white"/>
<path d="M664.966 78.7299H656.626V88H653.446V67.06H656.626V75.97H664.966V67.06H668.146V88H664.966V78.7299Z" fill="white"/>
<path d="M679.71 67.06H686.61C687.85 67.06 688.95 67.26 689.91 67.66C690.89 68.0599 691.71 68.6899 692.37 69.5499C693.05 70.3899 693.56 71.47 693.9 72.79C694.26 74.11 694.44 75.69 694.44 77.53C694.44 79.37 694.26 80.95 693.9 82.27C693.56 83.59 693.05 84.68 692.37 85.54C691.71 86.38 690.89 87 689.91 87.4C688.95 87.8 687.85 88 686.61 88H679.71V67.06ZM686.61 85.21C687.99 85.21 689.07 84.77 689.85 83.89C690.63 82.99 691.02 81.68 691.02 79.96V75.1C691.02 73.38 690.63 72.08 689.85 71.2C689.07 70.3 687.99 69.85 686.61 69.85H682.89V85.21H686.61Z" fill="white"/>
<path d="M698.526 88V67.06H710.676V69.85H701.706V75.97H709.806V78.7299H701.706V85.21H710.676V88H698.526Z" fill="white"/>
<path d="M720.58 88.36C719.02 88.36 717.66 88.07 716.5 87.49C715.36 86.89 714.38 86.03 713.56 84.91L715.75 82.9C716.37 83.76 717.08 84.42 717.88 84.88C718.68 85.34 719.59 85.57 720.61 85.57C723.09 85.57 724.33 84.43 724.33 82.15C724.33 81.23 724.11 80.5299 723.67 80.0499C723.23 79.5499 722.47 79.1699 721.39 78.91L719.68 78.5499C717.8 78.1299 716.41 77.46 715.51 76.54C714.63 75.6 714.19 74.29 714.19 72.61C714.19 70.67 714.77 69.2 715.93 68.2C717.11 67.2 718.75 66.7 720.85 66.7C722.35 66.7 723.61 66.9599 724.63 67.4799C725.67 67.9799 726.57 68.77 727.33 69.85L725.14 71.77C724.6 71.0099 723.99 70.44 723.31 70.06C722.65 69.68 721.81 69.49 720.79 69.49C719.65 69.49 718.79 69.73 718.21 70.21C717.65 70.67 717.37 71.44 717.37 72.52C717.37 73.4 717.59 74.07 718.03 74.53C718.49 74.97 719.23 75.3099 720.25 75.5499L721.96 75.9399C722.96 76.1599 723.81 76.44 724.51 76.78C725.21 77.1 725.78 77.5 726.22 77.9799C726.68 78.46 727.01 79.0299 727.21 79.6899C727.41 80.3299 727.51 81.0799 727.51 81.9399C727.51 84.0399 726.9 85.64 725.68 86.74C724.48 87.82 722.78 88.36 720.58 88.36Z" fill="white"/>
<path d="M730.542 88V85.45H733.092V69.61H730.542V67.06H738.822V69.61H736.272V85.45H738.822V88H730.542Z" fill="white"/>
<path d="M755.021 84.91H754.661C754.461 85.91 753.951 86.74 753.131 87.4C752.311 88.04 751.151 88.36 749.651 88.36C748.571 88.36 747.571 88.16 746.651 87.76C745.751 87.36 744.961 86.73 744.281 85.87C743.601 84.99 743.071 83.87 742.691 82.51C742.311 81.13 742.121 79.48 742.121 77.56C742.121 75.64 742.301 74 742.661 72.64C743.041 71.26 743.581 70.13 744.281 69.25C745.001 68.37 745.861 67.7299 746.861 67.3299C747.861 66.9099 748.991 66.7 750.251 66.7C752.111 66.7 753.621 67.0999 754.781 67.8999C755.941 68.6999 756.841 69.84 757.481 71.32L754.871 72.85C754.511 71.83 753.961 71.02 753.221 70.42C752.501 69.82 751.521 69.52 750.281 69.52C748.781 69.52 747.611 70 746.771 70.96C745.951 71.92 745.541 73.2599 745.541 74.9799V80.08C745.541 81.8 745.951 83.14 746.771 84.1C747.611 85.06 748.781 85.54 750.281 85.54C750.901 85.54 751.481 85.45 752.021 85.27C752.561 85.09 753.031 84.83 753.431 84.49C753.851 84.15 754.171 83.73 754.391 83.23C754.631 82.71 754.751 82.13 754.751 81.49V79.66H750.881V76.93H757.841V88H755.021V84.91Z" fill="white"/>
<path d="M767.104 75.43L765.514 71.53H765.124L765.364 75.49V88H762.304V67.06H765.964L772.204 79.63L773.824 83.53H774.214L773.974 79.57V67.06H777.034V88H773.344L767.104 75.43Z" fill="white"/>
</svg>
